<?xml version="1.0" standalone="no"?>
<!DOCTYPE svg PUBLIC "-//W3C//DTD SVG 20010904//EN"
 "http://www.w3.org/TR/2001/REC-SVG-20010904/DTD/svg10.dtd">
<svg version="1.0" xmlns="http://www.w3.org/2000/svg"
 width="500.000000pt" height="500.000000pt" viewBox="0 0 500.000000 500.000000"
 preserveAspectRatio="xMidYMid meet">
<metadata>
Created by potrace 1.14, written by Peter Selinger 2001-2017
</metadata>
<g transform="translate(0.000000,500.000000) scale(0.100000,-0.100000)"
fill="#000000" stroke="none">
<path d="M1780 3125 c0 -8 9 -19 20 -25 16 -9 22 -8 26 4 3 8 3 20 -1 26 -9
15 -45 12 -45 -5z"/>
<path d="M1890 3029 c-13 -23 6 -53 40 -62 39 -10 60 45 27 68 -30 21 -54 19
-67 -6z"/>
<path d="M2365 2957 c-51 -17 -133 -76 -175 -127 l-40 -48 26 -6 c14 -4 37
-18 50 -31 l24 -24 27 34 c16 19 31 35 34 35 3 0 6 -14 7 -31 1 -40 12 -51 13
-13 1 49 7 66 28 88 l21 20 1 -54 c1 -30 1 -61 0 -68 -1 -6 2 -19 7 -27 5 -10
9 11 10 57 3 84 8 104 26 111 8 3 13 -4 13 -22 2 -88 7 -141 15 -141 4 0 8 21
9 48 1 93 9 135 24 120 3 -2 7 -36 10 -74 8 -119 17 -199 21 -203 2 -2 4 47 5
110 1 117 3 146 13 157 11 11 14 -4 21 -98 8 -118 20 -136 20 -30 -1 127 23
151 32 31 5 -66 21 -92 18 -29 -1 24 0 49 3 57 8 20 32 -16 32 -48 0 -14 5
-33 10 -41 8 -11 9 -8 4 13 -10 45 9 31 76 -53 116 -148 204 -213 303 -223 68
-7 115 8 135 44 10 16 20 29 25 29 14 0 7 26 -13 48 -12 12 -16 22 -11 22 6 0
14 -8 19 -17 13 -23 42 -26 42 -3 0 10 9 20 20 23 15 4 20 0 21 -16 0 -22 0
-22 9 1 5 12 11 22 13 22 2 0 3 -10 2 -22 -1 -13 2 -36 6 -53 5 -25 7 -21 8
22 1 48 -1 54 -29 68 -42 22 -74 19 -109 -11 -36 -30 -38 -40 -13 -68 17 -21
17 -21 -6 -2 -12 11 -25 16 -29 13 -3 -4 -12 -2 -19 4 -9 8 -11 5 -7 -10 9
-34 -13 -24 -25 12 -10 30 -10 30 -5 -12 7 -53 -13 -50 -23 4 -3 20 -10 38
-15 41 -8 4 -4 -40 7 -73 2 -7 -1 -13 -6 -13 -6 0 -10 3 -10 8 0 4 -9 48 -20
97 l-20 90 6 -70 c3 -38 8 -80 11 -92 3 -13 0 -23 -5 -23 -6 0 -16 26 -22 58
-16 80 -21 87 -15 20 3 -32 1 -58 -4 -58 -7 0 -16 25 -35 105 -3 11 -3 -4 -1
-33 3 -45 1 -52 -11 -41 -8 6 -14 18 -14 26 0 8 -4 12 -9 9 -10 -7 -64 56
-136 159 -108 154 -186 208 -305 211 -36 1 -78 -3 -95 -9z"/>
<path d="M2023 2898 c-18 -5 -33 -12 -34 -16 0 -4 -2 -15 -4 -26 -2 -10 7 -29
20 -42 21 -21 35 -23 87 -15 4 0 12 10 18 22 9 16 8 26 -4 44 -23 34 -46 44
-83 33z"/>
<path d="M1706 2873 c-6 -14 -5 -15 5 -6 7 7 10 15 7 18 -3 3 -9 -2 -12 -12z"/>
<path d="M1699 2818 c0 -18 -2 -42 -3 -53 -2 -11 -6 -56 -10 -100 -4 -44 -9
-91 -11 -105 -2 -14 -6 -47 -10 -75 -3 -27 -10 -77 -15 -110 -15 -93 -19 -88
55 -81 149 14 283 94 400 235 30 38 55 71 55 75 0 3 -9 6 -21 6 -23 0 -79 30
-79 42 0 21 -17 3 -39 -42 -14 -27 -27 -48 -29 -45 -2 2 -6 29 -7 60 -5 72
-15 84 -16 19 0 -27 -2 -58 -5 -69 -2 -11 -5 -30 -6 -42 -3 -26 -44 -78 -51
-66 -3 5 -7 62 -8 126 -3 127 -14 143 -23 32 -13 -181 -22 -217 -54 -234 -16
-8 -17 4 -17 180 1 211 -5 239 -18 94 -7 -70 -27 -241 -32 -270 -2 -11 -4 -25
-4 -31 -1 -7 -12 -19 -26 -28 l-24 -16 5 237 c3 131 7 250 9 266 2 15 -1 27
-6 27 -5 0 -9 -15 -10 -32z"/>
<path d="M2907 2823 c-14 -13 -6 -42 15 -57 30 -22 55 -20 61 3 8 33 -54 77
-76 54z"/>
<path d="M2811 2776 c-23 -28 22 -79 60 -69 28 8 32 34 8 60 -26 26 -51 30
-68 9z"/>
<path d="M3016 2764 c-7 -18 39 -67 57 -61 20 6 19 35 -2 56 -25 25 -47 27
-55 5z"/>
<path d="M2095 2735 c-31 -30 -32 -55 -2 -83 47 -44 139 -13 132 45 -6 60 -86
83 -130 38z"/>
<path d="M2448 2675 c2 -14 6 -25 8 -25 2 0 4 11 4 25 0 14 -4 25 -9 25 -4 0
-6 -11 -3 -25z"/>
<path d="M3097 2674 c-10 -10 15 -53 34 -59 29 -10 41 3 28 28 -18 33 -46 47
-62 31z"/>
<path d="M2891 2624 c0 -11 3 -14 6 -6 3 7 2 16 -1 19 -3 4 -6 -2 -5 -13z"/>
<path d="M2256 2619 c-64 -18 -89 -82 -44 -113 60 -42 156 16 132 79 -10 25
-55 43 -88 34z"/>
<path d="M2688 2619 c-21 -12 -24 -52 -5 -66 34 -27 97 -13 97 21 0 36 -59 65
-92 45z"/>
<path d="M3272 2560 c0 -14 2 -19 5 -12 2 6 2 18 0 25 -3 6 -5 1 -5 -13z"/>
<path d="M3295 2530 c6 -30 16 -40 12 -12 -2 12 -6 24 -10 28 -3 4 -4 -4 -2
-16z"/>
<path d="M2572 2524 c-50 -35 -2 -105 57 -83 48 19 57 68 16 87 -34 16 -46 15
-73 -4z"/>
<path d="M2403 2515 c-17 -8 -35 -22 -40 -32 -37 -74 76 -110 122 -39 34 52
-19 97 -82 71z"/>
<path d="M3220 2486 c0 -16 34 -48 43 -40 3 4 2 15 -3 24 -12 23 -40 34 -40
16z"/>
<path d="M3290 2402 c0 -5 7 -15 15 -22 8 -7 15 -8 15 -2 0 5 -7 15 -15 22 -8
7 -15 8 -15 2z"/>
<path d="M1209 2196 c-112 -47 -123 -207 -19 -261 111 -57 236 20 225 138 -4
47 -41 103 -77 118 -38 15 -98 18 -129 5z m119 -83 c64 -70 -25 -172 -107
-122 -52 31 -49 114 6 143 35 19 71 11 101 -21z"/>
<path d="M4082 2202 c-32 -5 -102 -74 -104 -103 -3 -59 3 -95 20 -119 46 -61
138 -81 201 -44 17 10 31 22 31 26 0 17 -29 19 -57 5 -48 -25 -119 -7 -143 37
-53 100 49 200 150 146 12 -6 28 -9 36 -6 54 21 -59 70 -134 58z"/>
<path d="M4427 2191 c-41 -21 -57 -62 -36 -99 10 -20 31 -32 76 -47 34 -11 67
-25 74 -32 20 -20 1 -52 -36 -59 -31 -6 -52 -2 -108 21 -16 6 -18 4 -15 -15 2
-19 13 -26 50 -36 83 -21 158 10 158 66 0 42 -29 69 -94 88 -74 22 -91 45 -56
74 24 19 66 20 113 2 8 -3 17 2 21 11 12 32 -96 52 -147 26z"/>
<path d="M1454 2063 l1 -138 32 -3 33 -3 -3 44 c-2 39 0 45 19 45 14 0 29 -15
47 -44 23 -39 31 -44 62 -44 19 0 35 2 35 5 0 3 -11 24 -25 46 l-26 40 25 29
c31 38 30 101 -3 133 -18 19 -35 23 -110 25 l-88 4 1 -139z m148 71 c12 -8 10
-48 -4 -62 -19 -19 -78 -15 -79 6 -4 57 6 73 42 67 18 -3 36 -8 41 -11z"/>
<path d="M1725 2060 l0 -140 33 0 c31 0 32 2 32 40 0 38 1 39 34 38 95 -3 152
73 111 151 -18 36 -60 51 -144 51 l-66 0 0 -140z m136 75 c13 -4 19 -16 19
-35 0 -34 -11 -42 -56 -46 -34 -2 -34 -2 -34 40 0 24 3 45 6 49 6 6 30 3 65
-8z"/>
<path d="M1980 2059 l0 -140 32 3 c32 3 32 3 31 54 -2 51 -1 52 30 55 70 8 77
3 77 -57 l0 -54 33 0 33 0 -1 138 0 137 -32 3 -33 3 0 -54 0 -54 -52 1 -53 1
-1 40 c-1 22 -2 46 -3 53 -1 6 -14 12 -31 12 l-30 0 0 -141z"/>
<path d="M2361 2168 c-8 -18 -32 -71 -54 -118 -60 -131 -60 -130 -37 -130 13
0 26 12 37 35 l17 35 73 0 74 0 15 -35 c9 -23 21 -35 34 -35 11 0 20 2 20 5 0
3 -28 66 -62 140 -50 111 -65 135 -82 135 -14 0 -26 -11 -35 -32z m64 -74 c14
-31 25 -60 25 -64 0 -4 -25 -7 -55 -7 -30 0 -55 2 -55 4 0 9 53 123 56 123 3
0 15 -25 29 -56z"/>
<path d="M2697 2193 c-2 -5 -3 -66 -3 -138 l1 -130 98 -3 c89 -2 97 -1 97 16
0 17 -8 19 -71 18 -39 -1 -73 2 -75 5 -2 3 -4 59 -5 123 -1 106 -3 116 -19
116 -11 0 -21 -3 -23 -7z"/>
<path d="M3010 2194 c0 -3 23 -45 52 -92 42 -70 52 -95 53 -132 0 -37 3 -45
20 -48 18 -2 20 3 20 45 -1 41 7 61 52 135 29 47 53 89 53 92 0 3 -9 6 -19 6
-13 0 -29 -18 -49 -52 -58 -102 -54 -101 -101 -20 -29 51 -48 72 -61 72 -11 0
-20 -3 -20 -6z"/>
<path d="M3375 2189 c-11 -16 2 -23 45 -24 22 -1 42 -4 45 -7 3 -3 6 -57 6
-122 0 -106 2 -116 18 -116 24 0 27 15 25 138 0 67 3 102 10 103 6 1 27 2 46
3 24 1 36 6 38 19 3 15 -8 17 -112 17 -70 0 -117 -4 -121 -11z"/>
<path d="M3760 2059 c0 -139 0 -140 22 -137 21 3 22 7 21 131 -1 70 -2 132 -2
137 -1 6 -10 10 -21 10 -19 0 -20 -7 -20 -141z"/>
</g>
</svg>
